<svg width="80" height="80" viewBox="0 0 80 80" fill="none" xmlns="http://www.w3.org/2000/svg">
<path d="M16.5 48.1001C14.85 52.2501 12.25 56.3501 8.775 60.3001C7.675 61.5501 7.525 63.3501 8.425 64.7501C9.125 65.8501 10.275 66.4501 11.525 66.4501C11.875 66.4501 12.225 66.4251 12.575 66.3001C19.925 64.1501 37.1 56.5251 37.575 32.0751C37.75 22.6501 30.85 14.5501 21.875 13.6251C16.9 13.1251 11.95 14.7501 8.275 18.0501C6.45741 19.6985 5.00468 21.7088 4.01012 23.9519C3.01557 26.195 2.50118 28.6214 2.5 31.0751C2.5 39.3251 8.35 46.5501 16.5 48.1001ZM61.775 13.6251C56.825 13.1251 51.875 14.7501 48.2 18.0501C46.3823 19.6984 44.9295 21.7087 43.9349 23.9518C42.9403 26.195 42.426 28.6214 42.425 31.0751C42.425 39.3251 48.275 46.5501 56.425 48.1001C54.775 52.2501 52.175 56.3501 48.7 60.3001C47.6 61.5501 47.45 63.3501 48.35 64.7501C49.05 65.8501 50.2 66.4501 51.45 66.4501C51.8 66.4501 52.15 66.4251 52.5 66.3001C59.85 64.1501 77.025 56.5251 77.5 32.0751V31.7251C77.5 22.4501 70.675 14.5501 61.775 13.6251Z" fill="#132577"/>
</svg>
