<svg width="50" height="50" viewBox="0 0 50 50" fill="none" xmlns="http://www.w3.org/2000/svg">
<g clip-path="url(#clip0_34_275)">
<path d="M22.7272 19.318V21.5907H20.4545V24.9998H22.7272V35.227H27.2727V24.9998H30.2954L30.6817 21.5907H27.2727V19.6021C27.2727 18.6816 27.3636 18.193 28.784 18.193H30.6817V14.7725H27.6363C24 14.7726 22.7272 16.477 22.7272 19.318Z" fill="#132577"/>
<path d="M25 0C11.1929 0 0 11.1929 0 25C0 38.8071 11.1929 50 25 50C38.8071 50 50 38.8071 50 25C50 11.1929 38.8071 0 25 0ZM25 47.7272C12.448 47.7272 2.27275 37.552 2.27275 25C2.27275 12.448 12.448 2.27275 25 2.27275C37.552 2.27275 47.7272 12.448 47.7272 25C47.7272 37.552 37.552 47.7272 25 47.7272Z" fill="#132577"/>
</g>
<defs>
<clipPath id="clip0_34_275">
<rect width="50" height="50" fill="white"/>
</clipPath>
</defs>
</svg>
