<svg width="50" height="50" viewBox="0 0 50 50" fill="none" xmlns="http://www.w3.org/2000/svg">
<g clip-path="url(#clip0_35_287)">
<path d="M18.1818 20.4547C19.4371 20.4547 20.4546 19.4371 20.4546 18.1819C20.4546 16.9267 19.4371 15.9092 18.1818 15.9092C16.9266 15.9092 15.9091 16.9267 15.9091 18.1819C15.9091 19.4371 16.9266 20.4547 18.1818 20.4547Z" fill="#132577"/>
<path d="M15.9091 21.5908H20.4545V34.0908H15.9091V21.5908Z" fill="#132577"/>
<path d="M25 0C11.1929 0 0 11.1929 0 25C0 38.8071 11.1929 50 25 50C38.8071 50 50 38.8071 50 25C50 11.1929 38.8071 0 25 0ZM25 47.7272C12.448 47.7272 2.27275 37.552 2.27275 25C2.27275 12.448 12.448 2.27275 25 2.27275C37.552 2.27275 47.7272 12.448 47.7272 25C47.7272 37.552 37.552 47.7272 25 47.7272Z" fill="#132577"/>
<path d="M31.0909 21.5908C27.6818 21.5908 27.2728 23.6136 27.2728 23.6136V21.5908H22.7273V34.0908H27.2728V27.2727C27.2728 27.2727 27.2728 24.9999 29.2046 24.9999C30.3409 24.9999 30.6818 26.0112 30.6818 27.2727V34.0908H35.2272V27.2727C35.2272 23.7158 33.6818 21.5908 31.0909 21.5908Z" fill="#132577"/>
</g>
<defs>
<clipPath id="clip0_35_287">
<rect width="50" height="50" fill="white"/>
</clipPath>
</defs>
</svg>
