<svg width="50" height="50" viewBox="0 0 50 50" fill="none" xmlns="http://www.w3.org/2000/svg">
<g clip-path="url(#clip0_34_279)">
<path d="M36.875 16.25C35.9576 16.7936 34.9548 17.1778 33.9091 17.3864C33.4694 16.9252 32.9403 16.5584 32.3542 16.3083C31.7681 16.0582 31.1372 15.9301 30.5 15.9318C27.9632 15.9127 25.8845 17.9407 25.8409 20.4772C25.842 20.8293 25.8839 21.1802 25.9659 21.5227C24.1182 21.4355 22.3089 20.964 20.6536 20.1383C18.9983 19.3126 17.5334 18.1509 16.3522 16.7273C15.9437 17.4156 15.7242 18.1996 15.7159 19C15.716 19.7595 15.9063 20.5069 16.2696 21.1739C16.6329 21.8409 17.1575 22.4062 17.7955 22.8182C17.0551 22.7941 16.3309 22.5955 15.6818 22.2386V22.2954C15.6744 24.5119 17.2441 26.4205 19.4205 26.8409C18.7344 27.0237 18.0162 27.0509 17.3183 26.9204C17.9457 28.798 19.6911 30.074 21.6705 30.1023C20.0226 31.3837 17.9966 32.083 15.9092 32.091C15.5294 32.0906 15.15 32.0678 14.7729 32.0228C16.9113 33.3755 19.3902 34.0928 21.9206 34.091C29.1367 34.2228 35.0935 28.4797 35.2253 21.2636C35.2267 21.1871 35.2274 21.1107 35.2274 21.0341V20.4432C36.1181 19.7905 36.8873 18.9867 37.5002 18.0682C36.6471 18.4417 35.7433 18.6868 34.8184 18.7954C35.7912 18.226 36.5226 17.3208 36.875 16.25Z" fill="#132577"/>
<path d="M25 0C11.1929 0 0 11.1929 0 25C0 38.8071 11.1929 50 25 50C38.8071 50 50 38.8071 50 25C50 11.1929 38.8071 0 25 0ZM25 47.7272C12.448 47.7272 2.27275 37.552 2.27275 25C2.27275 12.448 12.448 2.27275 25 2.27275C37.552 2.27275 47.7272 12.448 47.7272 25C47.7272 37.552 37.552 47.7272 25 47.7272Z" fill="#132577"/>
</g>
<defs>
<clipPath id="clip0_34_279">
<rect width="50" height="50" fill="white"/>
</clipPath>
</defs>
</svg>
